<svg width="1280" height="616" viewBox="0 0 1280 616" fill="none" xmlns="http://www.w3.org/2000/svg">
<g opacity="0.5">
<path opacity="0.1" d="M297.517 57.3394C297.057 53.9046 296.127 50.5408 294.75 47.3324C294.574 46.7256 294.267 46.1601 293.847 45.6718C293.427 45.1834 292.904 44.783 292.312 44.4961C291.52 44.3015 290.689 44.2928 289.893 44.4705L277.473 46.2656C276.433 46.3104 275.438 46.6757 274.639 47.3056C273.021 48.9125 274.614 51.5 274.565 53.7169C274.509 56.2097 272.164 58.2332 269.621 58.9027C267.025 59.398 264.348 59.3667 261.766 58.8107L244.399 56.2615C249.514 54.7191 254.067 51.8494 257.537 47.9801C259.823 45.4228 261.039 40.6484 257.736 39.4374C256.754 39.183 255.731 39.1054 254.719 39.2086C246.851 39.2664 240.659 33.061 233.293 30.4475C228.578 28.883 223.461 28.7665 218.672 30.115C213.883 31.4634 209.669 34.2076 206.631 37.9551L215.882 38.3764C216.753 38.331 217.616 38.5485 218.346 38.9972C220.374 40.5707 217.853 43.593 218.139 46.0569C218.51 49.258 223.01 49.9414 226.402 50.2651C229.794 50.5888 234.097 53.192 232.465 56.0195C215.417 61.5663 198.068 45.1768 180.163 47.1943C175.631 47.7049 171.352 49.3864 166.928 50.4438C139.901 56.9028 111.96 39.6694 84.3504 43.3191C78.2124 44.3075 72.1799 45.8103 66.3243 47.8097C62.5666 48.9751 58.6471 50.2345 55.9167 52.9373C53.1864 55.6401 52.1473 60.2624 54.7338 63.0885C47.6046 63.643 40.4278 62.9987 33.5368 61.1853C35.4003 62.1637 36.9505 63.5979 38.0248 65.3374C39.099 67.0768 39.6577 69.0574 39.6422 71.0711C28.5108 72.7856 17.6741 75.9067 7.42366 80.3503C9.33678 83.3553 11.5713 86.1669 14.0921 88.7411L0 97.2925C4.76099 98.4256 7.22255 104.558 4.45386 108.387C9.39046 106.313 12.4499 100.947 17.7288 99.8588C21.1872 99.146 24.7062 100.482 27.987 101.738C31.2677 102.993 34.8737 104.21 38.27 103.268C41.6663 102.326 44.1714 98.1663 42.0133 95.5161C56.53 91.5154 71.5328 89.3014 86.6496 88.9289C87.8159 88.7907 88.9986 89.0027 90.0301 89.5349C91.998 90.8245 91.4802 93.6098 91.3742 95.8699C91.2682 98.1299 93.1331 101.1 95.2716 100.082C92.7556 102.142 94.9064 106.022 97.3202 108.189C99.734 110.356 102.643 113.346 101.166 116.165C100.78 116.9 100.126 117.489 99.7546 118.231C98.6592 120.423 100.398 122.977 102.45 124.432C104.501 125.888 107.014 126.905 108.439 128.92C109.864 130.935 109.217 134.462 106.669 134.743L99.426 126.057C96.9515 128.481 95.2551 131.517 94.5335 134.815C102.214 140.745 103.369 152.816 96.9391 159.951C93.6533 163.597 88.9806 165.813 84.9024 168.657C80.8241 171.501 77.0504 175.551 77.0607 180.339C77.0784 188.612 76.3628 196.297 79.6447 203.967C85.6964 218.109 92.6834 231.878 100.564 245.192C102.634 248.688 105.308 252.52 109.501 253.122C104.202 240.938 99.4328 228.565 95.1919 216.002C97.9541 216.013 101.146 216.22 102.765 218.333C104.106 220.084 103.818 222.463 104.235 224.588C104.765 226.646 105.648 228.608 106.851 230.396L132.152 272.967C134.25 276.496 136.656 280.284 140.664 281.714C143.227 282.627 146.193 282.455 148.551 283.771C150.401 284.802 151.646 286.632 153.531 287.604C158.861 290.35 166.273 285.083 171.254 288.362C172.678 289.299 173.584 290.789 174.896 291.862C179.497 295.625 187.043 293.108 192.354 295.915C195.776 297.724 197.55 301.342 199.376 304.621C203.948 312.834 211.347 320.881 221.147 321.535C224.226 321.74 227.37 321.189 230.379 321.836C233.388 322.482 236.35 324.963 235.867 327.842C235.039 332.778 237.621 338.182 236.928 343.136C235.665 352.161 222.113 356.126 220.949 365.162C220.694 367.141 221.093 369.183 220.594 371.12C219.983 373.493 218.096 375.426 217.425 377.785C216.154 382.256 219.546 386.705 223.271 389.713C226.996 392.721 231.44 395.314 233.476 399.525C235.629 403.975 234.572 409.164 235.272 414.012C236.8 424.596 246.478 432.442 256.438 437.501C259.473 439.042 262.731 440.534 264.695 443.208C267.259 446.698 267.003 451.299 267.859 455.469C269.956 465.682 279.058 474.097 279.316 484.497C279.5 491.889 275.15 498.596 272.551 505.57C270.115 512.253 269.233 519.353 269.966 526.387C270.7 533.421 273.03 540.223 276.8 546.328C278.744 549.429 281.069 552.352 282.444 555.713C284.898 561.711 284.102 568.53 286.364 574.595C289.356 582.613 297.576 589.236 296.789 597.705C300.521 605.025 308.761 608.622 317.048 610.8L331.899 614.705C334.742 615.453 337.714 616.206 340.609 615.665C343.505 615.124 346.268 612.853 346.193 610.066C338.91 608.514 331.394 606.865 325.391 602.673C319.388 598.481 315.275 591.016 317.553 584.301C318.609 581.187 320.856 577.591 318.72 575.018C317.497 573.545 315.26 573.16 313.88 571.816C311.728 569.72 312.468 566.198 314.015 563.67C315.562 561.141 317.798 558.882 318.422 556.022C318.737 554.422 318.526 552.769 317.819 551.286C317.111 549.802 315.94 548.558 314.462 547.721C317.216 546.739 319.72 545.221 321.813 543.266C323.746 541.181 324.639 537.966 323.118 535.596C327.634 536.137 332.965 536.402 335.929 533.139C338.297 530.533 338.134 526.638 337.199 523.32C336.263 520.003 334.682 516.78 334.633 513.347C345.05 513.814 355.49 513.479 365.849 512.347C364.351 507.582 360.947 503.555 356.359 501.12C361.05 500.371 365.325 495.065 366.807 490.794C368.289 486.523 367.911 481.871 366.995 477.46C366.643 476.325 366.595 475.124 366.855 473.967C367.383 472.376 369.037 471.406 370.567 470.576L393.856 457.943C395.245 457.285 396.505 456.407 397.58 455.346C400.02 452.639 399.658 448.552 398.409 445.198C397.16 441.845 395.159 438.691 394.677 435.165C393.238 424.62 405.189 417.053 409.223 407.126C410.806 403.231 411.128 398.996 411.434 394.834C411.763 390.363 411.788 385.17 408.154 382.288C404.67 379.527 399.226 380.143 395.581 377.574C392.239 375.219 391.086 370.644 387.434 368.742C384.119 367.014 379.961 368.113 376.273 367.301C369.78 365.87 365.694 358.801 359.062 358.147C355.321 357.777 351.086 359.505 348.02 357.447C345.318 355.633 345.209 351.988 344.695 348.895C343.794 344.088 341.354 339.657 337.705 336.2C334.057 332.742 329.374 330.424 324.287 329.557C320.43 328.972 316.23 329.194 312.949 327.192C309.625 325.164 308.102 321.368 305.491 318.56C301.284 314.034 294.658 312.426 288.451 311.048L263.204 305.442C258.722 304.446 252.945 303.919 250.54 307.627C249.828 309.039 249.324 310.536 249.041 312.077C248.14 314.865 246.327 317.311 243.861 319.064C241.396 320.817 238.405 321.786 235.32 321.833C233.204 318.424 229.776 315.918 225.751 314.839C223.191 314.165 220.451 314.09 218.009 313.099C216.679 312.486 215.496 311.623 214.531 310.563C213.567 309.503 212.842 308.268 212.4 306.934C211.958 305.6 211.809 304.195 211.962 302.805C212.115 301.415 212.567 300.069 213.29 298.849C214.746 296.401 215.308 293.569 214.89 290.789C214.472 288.009 213.097 285.437 210.977 283.469C206.683 279.828 200.472 278.948 194.715 279.312C193.207 276.205 195.729 272.698 198.445 270.44C201.162 268.182 204.461 265.961 205.053 262.589C205.984 257.284 198.818 253.255 193.376 254.836C187.935 256.418 184.463 261.41 182.167 266.331C180.85 269.154 179.73 272.127 177.652 274.508C175.575 276.888 172.229 278.593 169.064 277.829C164.584 276.747 162.854 271.72 161.862 267.453C160.532 261.729 159.194 255.926 159.473 250.072C159.751 244.217 161.841 238.206 166.411 234.243C173.859 227.785 185.284 228.418 195.335 229.448C192.96 226.921 193.547 222.662 196.088 220.283C197.429 219.157 199.041 218.358 200.783 217.954C202.525 217.549 204.346 217.552 206.087 217.963C209.115 218.558 211.844 220.099 213.833 222.337C216.689 225.627 217.501 230.068 219.66 233.801C221.819 237.535 226.674 240.719 230.647 238.716C234.079 236.986 234.624 232.491 233.77 228.906C232.915 225.322 231.101 221.836 231.411 218.173C232.001 211.184 239.671 206.977 246.44 204.098C253.208 201.22 260.959 197.349 262.031 190.411C262.068 189.053 262.339 187.709 262.834 186.433C263.585 185.306 264.628 184.38 265.865 183.741C285.619 171.41 305.702 158.929 328.28 152.191C329.454 151.84 329.592 152.23 330.789 151.955C332.465 151.041 331.355 148.51 329.748 147.491C328.142 146.472 325.995 145.69 325.588 143.903C325.288 142.59 326.107 141.3 326.32 139.972C326.843 136.707 322.709 133.693 319.498 134.998C317.684 132.729 321.273 130.093 324.175 129.339C332.888 127.073 341.833 125.693 350.856 125.222C351.898 125.065 352.964 125.237 353.892 125.709C355.408 126.701 355.214 128.975 354.14 130.391C353.066 131.806 351.395 132.695 350.057 133.893C348.594 135.238 347.551 136.937 347.042 138.805C346.532 140.672 346.575 142.636 347.166 144.482C351.876 146.745 356.998 149.075 362.215 148.278C367.433 147.48 372.064 141.943 369.611 137.521C367.327 133.403 360.468 132.474 359.288 127.96C357.907 122.676 365.826 117.976 364.042 112.801C363.261 110.533 360.869 109.199 359.034 107.562C356.866 105.556 355.391 102.977 354.804 100.164C354.216 97.3511 354.543 94.4363 355.741 91.8021C352.751 92.2989 349.679 92.1112 346.782 91.2549C343.885 90.3986 341.247 88.8986 339.091 86.8806C335.108 83.0844 331.931 77.0958 326.276 77.2656C321.086 77.4215 316.617 83.1403 311.764 81.3955C310.57 80.9663 309.312 80.0927 308.155 80.6046C307.776 80.8371 307.458 81.1479 307.224 81.5136C306.991 81.8792 306.849 82.2902 306.809 82.7154C305.575 88.2843 307.697 94.6293 304.483 99.4414C300.987 104.678 292.899 105.404 288.66 110.126C286.359 112.689 285.467 116.143 283.352 118.846C281.237 121.548 276.748 123.267 274.209 120.912C275.457 118.489 275.798 115.739 275.176 113.11C274.554 110.481 273.006 108.129 270.786 106.438C268.429 104.986 265.889 103.819 263.225 102.964C260.247 101.774 257.415 100.283 254.777 98.517C253.456 97.7641 252.382 96.679 251.676 95.3829C251.118 93.7599 251.193 92.0017 251.888 90.4266C253.175 86.9409 255.446 83.8535 258.455 81.4978C261.464 79.142 265.097 77.6074 268.962 77.0595C272.342 76.6252 276.275 76.7782 278.512 74.3459C279.695 73.0589 280.316 71.1132 282.034 70.5905C283.133 70.3819 284.274 70.5146 285.286 70.9687L297.9 75.1627C299.308 75.7629 300.857 76.0049 302.394 75.8647C303.156 75.7677 303.852 75.4021 304.34 74.8412C304.829 74.2802 305.075 73.5655 305.029 72.8404C304.626 70.8617 301.402 69.9121 301.696 67.9163C301.86 67.2695 302.228 66.685 302.751 66.24C307.304 61.6632 312.871 58.0937 319.055 55.7872C325.239 53.4806 331.886 52.4939 338.521 52.8979C340.113 55.3678 337.595 58.2927 335.5 60.4013C333.405 62.5098 331.721 66.2772 334.255 67.9003C335.293 68.4009 336.448 68.6466 337.613 68.6148C340.719 69.0118 343.737 69.8766 346.553 71.176C350.912 72.9679 355.188 74.9284 359.38 77.0576C359.009 74.447 358.656 71.6968 359.703 69.2558C360.751 66.8148 363.728 64.9002 366.329 65.8509C368.835 66.767 370.12 69.9015 372.791 70.1887C376.352 70.5718 377.758 65.6016 376.27 62.521C374.782 59.4403 371.837 56.8608 371.591 53.4827C371.425 51.2037 372.343 48.3773 370.416 46.9973C369.73 46.583 368.952 46.3251 368.142 46.2441L320.02 37.8797C317.162 37.383 313.033 37.7637 312.907 40.5056C312.836 42.0361 314.283 43.5502 313.642 44.9574C312.958 46.4593 310.711 46.322 309.073 46.8532C306.533 47.6774 305.259 50.5264 305.503 53.0529C305.949 55.5633 306.979 57.9492 308.517 60.0396C305.387 58.8031 300.647 58.5758 297.517 57.3394Z" fill="url(#paint0_linear_74_691)"/>
<path d="M261.027 16.9426C257.938 15.8711 254.609 15.8211 251.492 16.7996C248.374 17.7781 245.619 19.7376 243.601 22.4125C242.794 23.5257 242.116 25.0603 242.792 26.2657C243.76 27.9938 246.227 27.3112 248.046 26.6931C250.719 25.692 253.629 25.6193 256.345 26.4856C258.053 27.1001 259.581 28.1863 261.296 28.7777C262.131 29.1437 263.046 29.2647 263.941 29.1275C264.837 28.9903 265.68 28.6002 266.38 27.9991C267.557 26.7407 267.631 24.7843 267.633 23.0218C267.715 22.4321 267.67 21.8307 267.502 21.2616C267.333 20.6924 267.046 20.1698 266.66 19.7319C265.973 19.3151 265.202 19.0759 264.409 19.0342C262.635 18.6899 261.03 17.7073 259.872 16.2558" fill="#BDCEFF" fill-opacity="0.2"/>
<path d="M277.83 13.0865C277.161 13.0563 276.493 13.1694 275.892 13.415C275.291 13.6605 274.776 14.0303 274.396 14.4887C274.017 14.947 273.786 15.4787 273.726 16.0324C273.667 16.5861 273.779 17.1433 274.054 17.6504C276.109 18.1154 278.257 18.2315 280.367 17.9919C281.42 17.8563 282.401 17.4653 283.186 16.8681C283.971 16.2708 284.526 15.4942 284.78 14.6359C282.295 15.0111 279.731 14.6048 277.587 13.4964" fill="#BDCEFF" fill-opacity="0.2"/>
<path d="M334.583 5.97438C328.849 7.11572 323.278 8.88718 317.987 11.2519C320.481 12.1494 322.602 13.7732 324.036 15.8839C325.469 17.9947 326.141 20.4808 325.951 22.9759C325.727 23.9338 325.753 24.9281 326.027 25.8746C326.636 27.2579 328.403 27.7769 329.955 28.132C332.745 28.9268 335.658 29.2748 338.572 29.1615C340.029 29.0901 341.445 28.6796 342.69 27.9673C343.935 27.2549 344.971 26.263 345.704 25.0815C346.126 23.9601 346.622 22.8641 347.187 21.7995C350.909 16.4931 361.966 22.9093 365.962 17.7806C367.37 15.974 367.241 13.2545 369.076 11.8229C370.026 11.1992 371.126 10.8062 372.277 10.6793C380.314 9.18463 388.431 8.10237 396.594 7.43734C400.461 7.12228 405.502 5.82227 405.534 2.18827C390.967 -0.489953 375.862 1.41223 362.569 7.59908C357.779 9.84474 351.445 14.5686 346.831 11.5914C345.104 10.4766 345.189 7.47498 342.812 6.22151C340.381 4.93998 337.164 5.4612 334.583 5.97438Z" fill="#BDCEFF" fill-opacity="0.2"/>
<path d="M382.766 14.0143L389.53 15.2464C388.285 15.1942 387.042 15.3942 385.885 15.8332C384.728 16.2723 383.684 16.9402 382.82 17.7924C381.957 18.6446 381.296 19.6616 380.88 20.7754C380.464 21.8893 380.304 23.0744 380.409 24.2517C386.743 26.2578 393.648 24.3056 400.32 24.5723C406.992 24.839 414.755 29.3575 413.616 35.5961C413.272 37.4824 412.123 39.3675 412.72 41.1961C413.139 42.4777 414.331 43.3871 415.004 44.5675C416.407 47.0273 415.286 50.1385 413.515 52.3744C411.745 54.6104 409.365 56.3945 407.81 58.7707C403.945 64.6807 406.141 72.3211 408.444 78.9237C409.11 81.4184 410.339 83.7462 412.047 85.7462C415.459 89.1852 421.018 89.4842 425.997 89.5531C429.621 89.6033 433.772 89.4336 436.064 86.7716C439.056 83.2962 436.964 77.8738 438.934 73.795C440.723 70.0905 445.281 68.5013 449.41 67.3742C456.976 65.3092 464.685 63.5537 471.838 60.4347C480.719 56.5616 489.019 50.5259 498.781 50.0273C501.52 49.8875 504.326 50.1939 506.964 49.4825C509.602 48.7711 512.108 46.6088 511.908 44.0154C511.738 41.7996 509.76 40.1725 508.215 38.5021C506.67 36.8318 505.457 34.2632 506.877 32.4959L532.463 27.9648C530.65 23.2786 529.237 17.1067 533.405 14.0564C534.908 12.9558 536.922 12.5159 538.202 11.1854C540.384 8.91768 539.287 5.01129 536.768 3.08271C534.249 1.15412 530.843 0.706415 527.616 0.452311C516.397 -0.431079 505.114 0.152647 493.873 0.736827C471.899 1.87877 449.926 3.02072 427.952 4.16266C423.529 4.39253 418.422 4.04134 414.365 5.47212C410.93 6.68342 408.488 8.90688 404.56 9.68808C397.308 11.1303 389.328 10.1544 382.766 14.0143Z" fill="#BDCEFF" fill-opacity="0.2"/>
<path d="M503.865 66.01C503.182 65.9078 502.485 66.0576 501.916 66.4282C501.539 66.8202 501.316 67.3218 501.281 67.8502C500.849 70.1826 501.364 72.5834 502.723 74.5718C503.415 75.5472 504.371 76.3295 505.491 76.8375C506.611 77.3454 507.854 77.5605 509.091 77.4604C512.106 77.0966 514.329 74.6628 517.101 73.4752C521.373 71.6465 539.517 68.7957 526.966 62.3802C522.641 60.1693 519.846 62.121 516.437 63.577C512.558 65.4544 508.211 66.2956 503.865 66.01Z" fill="#BDCEFF" fill-opacity="0.2"/>
<path d="M614.8 10.2513C613.28 10.8382 612.008 11.8843 611.184 13.2263C610.804 13.9077 610.716 14.7011 610.937 15.4423C611.159 16.1835 611.674 16.8158 612.375 17.2083C612.943 17.4029 613.545 17.4931 614.148 17.4742L620.329 17.6487C622.954 17.7228 626.234 18.2513 626.94 20.6427C627.464 22.4183 626.291 24.7001 627.706 25.969C628.313 26.4134 629.043 26.6825 629.808 26.744C631.844 27.2383 633.971 27.3032 636.036 26.934C640.533 25.794 638.17 23.2 639.586 20.8902C641.754 17.3561 641.378 19.4955 645.197 17.47C648.017 15.9742 651.661 13.2608 649.307 9.44832C645.214 2.81858 620.84 7.40317 614.8 10.2513Z" fill="#BDCEFF" fill-opacity="0.2"/>
<path d="M733.359 6.67401L729.857 7.12042C721.961 8.12706 714.02 9.14296 706.415 11.4082C709.707 12.6517 713.161 13.4613 716.682 13.8149C718.62 13.9057 720.545 14.1671 722.433 14.5959C725.792 15.5512 729.176 18.0181 732.421 16.7544C734.434 15.9708 735.09 13.9693 736.757 12.9086C737.908 12.1761 742.273 10.9906 742.761 10.2513C746.706 4.27467 736.392 6.28741 733.359 6.67401Z" fill="#BDCEFF" fill-opacity="0.2"/>
<path d="M748.907 21.3729C744.166 23.998 739.767 27.1877 735.808 30.8711C734.141 32.4234 732.437 34.354 732.588 36.6154C732.789 39.621 736.023 41.3644 738.824 42.5388L750.172 47.2956C751.548 45.3746 750.288 42.7227 748.866 40.8349C747.443 38.947 745.752 36.7628 746.381 34.4911C747.098 31.8986 750.291 31.0152 752.968 30.5686C757.33 29.8409 769.096 29.8992 767.682 22.9392C766.016 14.7381 753.286 18.9497 748.907 21.3729Z" fill="#BDCEFF" fill-opacity="0.2"/>
<path d="M746.424 459.679C745.358 462.585 745.257 466.008 747.1 468.545C749.167 471.391 753.305 472.452 756.884 471.731C760.449 470.837 763.626 468.912 765.969 466.227C768.111 463.977 769.873 461.431 771.194 458.676C773.037 454.384 774.337 449.902 775.067 445.323L778.541 428.136C779.317 424.295 779.287 412.519 771.795 416.356C769.748 417.404 765.009 425.68 762.864 428.026C758.999 432.256 758.487 436.36 756.452 441.484C753.903 447.902 748.78 453.251 746.424 459.679Z" fill="#BDCEFF" fill-opacity="0.2"/>
<path d="M1141.32 548.357C1138.98 547.524 1136.71 546.539 1134.52 545.409C1132.33 550.896 1131.16 556.678 1131.07 562.516L1147.1 554.26C1149.52 553.018 1152.25 551.292 1152.2 548.771C1152.22 548.46 1152.15 548.149 1151.99 547.871C1151.84 547.593 1151.6 547.358 1151.31 547.192C1150.95 547.062 1150.57 547.02 1150.19 547.072C1147.81 547.252 1145.64 548.317 1143.4 549.057C1141.16 549.797 1138.53 550.189 1136.48 549.09" fill="#BDCEFF" fill-opacity="0.2"/>
<path d="M1230.12 553.055C1228.25 553.536 1226.43 554.156 1224.66 554.909C1220.75 556.791 1218.09 560.365 1214.57 562.843C1211.2 565.214 1207.14 566.516 1203.16 567.782C1201.99 568.761 1202.53 570.731 1203.8 571.591C1205.17 572.326 1206.74 572.659 1208.3 572.548C1212.44 572.634 1216.8 572.672 1220.42 570.783C1222.46 569.532 1224.37 568.099 1226.12 566.504C1230.36 563.163 1235.44 560.959 1240.48 558.829C1242.31 558.175 1244 557.217 1245.48 556.001C1248.64 553.054 1248.86 548.508 1244.3 547.506C1240.62 546.695 1233.63 551.982 1230.12 553.055Z" fill="#BDCEFF" fill-opacity="0.2"/>
<path d="M1269.64 530.219C1269.84 528.384 1269.56 526.534 1268.82 524.807C1268.08 523.08 1266.9 521.522 1265.37 520.252C1265.32 523.923 1265.2 527.834 1262.83 530.869C1261.14 533.032 1258.49 534.493 1256.64 536.554C1254.79 538.614 1253.97 541.88 1256.14 543.688C1257.53 544.607 1259.22 545.114 1260.96 545.134C1265.28 545.577 1270.28 545.824 1273.3 543.105C1274.96 541.621 1275.76 539.423 1277.78 538.332C1278.53 538.057 1279.2 537.639 1279.74 537.108C1280.57 535.955 1279.25 534.435 1277.76 534.019C1276.27 533.604 1274.63 533.799 1273.14 533.404C1271.64 533.01 1270.27 531.543 1271.03 530.356" fill="#BDCEFF" fill-opacity="0.2"/>
<path d="M1199.71 382.783C1197.45 383.294 1195.11 383.422 1192.8 383.161C1188.96 382.506 1185.97 379.819 1182.87 377.616C1175.5 372.407 1166.54 369.501 1157.28 369.316C1148.85 369.168 1140.35 371.287 1132.08 369.809C1132.62 372.6 1135.19 374.693 1137.93 375.938C1140.68 377.182 1143.71 377.808 1146.47 379.027C1150.88 380.999 1154.39 384.383 1156.34 388.558C1157.22 390.483 1157.78 392.578 1159.13 394.259C1161.88 397.695 1167.09 398.45 1171.69 398.169C1177.69 397.802 1183.96 396.201 1189.54 398.275C1193.81 399.863 1196.86 403.332 1200.43 406.029C1203.99 408.727 1209.02 410.728 1213.11 408.782C1208.86 407.504 1205.16 404.998 1202.55 401.63C1199.94 398.261 1198.56 394.207 1198.61 390.058C1202.62 390.401 1214.18 390.268 1213.56 383.936C1213.03 378.569 1203.16 382.203 1199.71 382.783Z" fill="#BDCEFF" fill-opacity="0.2"/>
<path d="M1147.06 427.247C1147.78 423.553 1151.7 420.291 1150.48 416.715C1149.63 414.243 1146.58 413.022 1143.82 412.961C1141.05 412.9 1138.34 413.673 1135.57 413.746C1133.77 413.656 1131.97 413.68 1130.17 413.818C1124.69 414.665 1121.3 420.066 1116.13 421.987C1112.99 423.154 1109.45 422.931 1106.18 423.738C1098.76 425.571 1094.06 432.158 1088.87 437.47C1080.49 446.013 1069.57 451.995 1057.52 454.641C1053.3 455.559 1048.76 456.146 1045.41 458.72C1040.96 462.129 1039.87 467.973 1038.88 473.281C1036.15 487.938 1031.98 502.325 1026.42 516.258L1044.04 518.371C1047.39 518.773 1050.87 519.166 1054.1 518.234C1056.44 517.403 1058.66 516.291 1060.71 514.927C1068.56 510.349 1077.34 507.371 1086.5 506.184C1091.11 505.589 1095.95 505.48 1100.29 507.091C1104.62 508.703 1108.33 512.356 1108.7 516.719C1110.57 516.171 1112.57 516.112 1114.47 516.548C1116.38 516.983 1118.12 517.896 1119.52 519.19C1122.28 521.832 1124.09 525.22 1124.69 528.877C1125.15 531.142 1125.62 533.855 1127.85 534.805C1129.68 535.58 1131.77 534.746 1133.77 534.596C1140.55 534.086 1146.17 541.507 1152.83 540.229C1159.98 538.859 1161.73 528.812 1168.7 526.799C1172.7 525.643 1178.32 527.049 1180.23 523.552C1181.92 520.47 1178.55 516.914 1178.9 513.463C1179.33 509.214 1184.66 507.411 1188.78 505.598C1202.96 499.347 1209.7 481.418 1202.82 468.195C1198.75 460.361 1190.74 454.194 1189.26 445.587C1188.12 438.965 1190.9 431.243 1186.4 426.031C1184.11 423.379 1180.24 421.916 1178.88 418.752C1178.02 416.76 1178.37 414.501 1177.91 412.397C1177.45 410.293 1175.49 408.092 1173.28 408.638C1166.86 410.221 1164.81 428.85 1161.37 433.376C1156.14 440.256 1145.41 435.724 1147.06 427.247Z" fill="url(#paint1_radial_74_691)" fill-opacity="0.3"/>
<path d="M1028.61 389.237C1026.39 388.601 1023.96 387.975 1021.84 388.883C1019.71 389.792 1018.46 392.983 1020.17 394.566C1033.53 394.035 1046.97 393.507 1060.22 395.36C1075.48 397.495 1090.58 402.783 1105.91 401.227C1097.16 398.589 1088.26 396.479 1079.26 394.91L1064.25 391.982C1060.23 391.121 1056.16 390.479 1052.07 390.059C1043.5 389.337 1037.03 391.648 1028.61 389.237Z" fill="#BDCEFF" fill-opacity="0.2"/>
<path d="M1041.96 346.3C1040.88 346.213 1039.53 346.137 1038.97 347.039C1038.43 347.901 1039.05 349.039 1038.76 350.006C1038.36 351.326 1036.57 351.663 1035.16 351.483C1033.75 351.304 1032.23 350.873 1030.98 351.53C1030.35 351.948 1029.87 352.553 1029.62 353.255C1029.38 353.957 1029.37 354.717 1029.61 355.422C1030.12 356.821 1030.95 358.093 1032.03 359.146C1033.87 361.395 1035.98 363.435 1038.3 365.227C1042.8 368.433 1048.89 369.977 1051.72 374.631C1052.12 375.533 1052.73 376.331 1053.51 376.961C1054.87 377.793 1056.64 377.16 1058.11 376.514L1063.24 374.25C1064.16 373.928 1064.99 373.386 1065.63 372.674C1066.81 371.138 1066.09 368.953 1065.1 367.298C1064.12 365.643 1062.86 363.931 1063.07 362.033C1063.45 358.65 1067.95 357.356 1069.8 354.461C1071.67 351.543 1070.45 347.784 1070.67 344.36C1070.92 340.356 1073.52 335.148 1069.33 332.157C1065.77 329.614 1062.37 331.963 1059.81 334.77C1054.42 340.689 1051.87 347.1 1041.96 346.3Z" fill="#BDCEFF" fill-opacity="0.2"/>
<path d="M1073.68 287.155C1075.48 290.332 1079.25 292.227 1081.21 295.321C1083.35 298.675 1083.1 303.007 1085.42 306.258C1087.79 309.592 1092.57 311.363 1093.9 315.156C1095.35 319.297 1092.05 324.33 1094.68 327.948C1095.17 328.54 1095.79 329.031 1096.5 329.391C1097.21 329.751 1097.99 329.972 1098.79 330.04C1099.6 330.108 1100.41 330.022 1101.18 329.786C1101.95 329.551 1102.65 329.171 1103.25 328.672C1104.36 327.562 1104.95 326.099 1104.9 324.593C1104.85 323.087 1104.17 321.658 1102.99 320.611C1101.43 319.306 1099.2 318.742 1097.9 317.218C1097.22 316.338 1096.77 315.329 1096.58 314.266C1095.87 311.2 1095.99 308.021 1096.91 305.004C1097.26 304.238 1097.35 303.394 1097.17 302.581C1096.58 301.018 1094.28 300.907 1092.66 300.181C1088.99 298.534 1089.08 293.771 1089.72 290.062C1089.29 292.531 1079.73 288.331 1078.73 286.933C1076.74 284.154 1077.82 278.794 1077.43 275.723C1073.13 277.627 1071.47 283.271 1073.68 287.155Z" fill="#BDCEFF" fill-opacity="0.2"/>
<path d="M980.361 336.075C978.678 334.228 976.145 332.296 973.89 333.41C972.169 334.26 971.696 336.594 972.37 338.364C973.192 340.083 974.457 341.562 976.04 342.654C980.739 346.455 985.8 349.886 989.9 354.305C997.237 362.212 1001.12 372.882 1009.1 380.167C1010.71 381.856 1012.83 382.983 1015.15 383.376C1017.48 383.588 1020.09 382.129 1020.35 379.854C1020.57 377.98 1019.24 376.303 1017.94 374.915C1014.84 371.608 1011.45 368.565 1008.52 365.11C1007.17 363.782 1006.32 362.043 1006.11 360.178C1006.1 358.318 1007.83 356.371 1009.67 356.831C1007.43 356.271 1005.77 352.619 1002.49 351.933C999.75 351.359 999.087 353.024 995.824 351.651C989.601 349.034 984.719 340.859 980.361 336.075Z" fill="#BDCEFF" fill-opacity="0.2"/>
<path d="M1128.91 158.142C1127.11 157.617 1125.35 156.997 1123.63 156.284C1119 154.912 1112.87 158.272 1113.49 163.005C1113.9 166.15 1116.86 168.27 1118.5 170.998C1120.93 175.043 1120.28 180.174 1119.01 184.704C1118.69 186.107 1118.1 187.433 1117.25 188.604C1116.07 189.84 1114.66 190.84 1113.1 191.55C1106.84 195.011 1101.33 199.636 1096.85 205.168C1096.36 205.679 1096.03 206.309 1095.87 206.993C1095.65 208.591 1097.28 209.755 1098.2 211.088C1100.24 214.048 1098.76 218.032 1098.97 221.61C1098.94 222.115 1099.04 222.621 1099.26 223.077C1099.48 223.534 1099.82 223.927 1100.24 224.22C1101.47 224.837 1102.93 223.788 1103.6 222.594C1105.82 218.632 1104.15 212.271 1108.31 210.361C1109.09 210 1110.05 209.847 1110.57 209.165C1111.4 208.084 1110.6 206.482 1111.02 205.19C1111.66 203.249 1114.35 203.162 1116.41 203.248C1119.97 203.394 1123.53 202.927 1126.92 201.868C1128.25 201.555 1129.46 200.864 1130.4 199.88C1131.64 198.35 1131.53 196.173 1131.29 194.227C1130.04 184.525 1126.93 175.148 1122.11 166.601C1125.76 167.061 1129.74 167.46 1132.89 165.582C1134.66 164.53 1136.77 161.385 1135.9 159.244C1134.51 155.858 1132.01 158.708 1128.91 158.142Z" fill="#BDCEFF" fill-opacity="0.2"/>
<path d="M651.167 212.092C651.613 214.366 652.051 216.761 651.268 218.95C650.484 221.14 648.02 222.97 645.693 222.299C643.886 221.778 642.843 220.051 641.561 218.734C634.428 211.41 618.337 215.65 613.931 206.59C612.133 202.892 613.355 198.462 612.129 194.558C611.355 192.302 609.815 190.354 607.752 189.021C605.688 187.687 603.217 187.043 600.727 187.19C598.456 187.502 596.245 188.13 594.166 189.053C580.235 194.36 565.611 197.839 550.694 199.395C547.86 199.559 545.056 200.045 542.342 200.841C536.217 202.953 532.032 208.354 529.054 213.865C526.076 219.376 523.877 225.343 519.884 230.24C515.688 235.386 509.807 238.989 504.322 242.887C502.209 244.182 500.449 245.936 499.188 248.005C497.999 250.327 498.066 253.028 498.159 255.609L499.28 286.963C499.424 290.995 499.605 295.172 501.502 298.781C503.872 303.288 508.553 306.239 511.801 310.221C515.115 314.312 516.841 319.366 516.688 324.529C516.618 326.605 516.402 329.06 518.101 330.363C519.135 331.001 520.345 331.332 521.577 331.314L566.166 334.785C574.009 335.396 582.702 336.4 587.823 342.084C590.239 344.766 592.181 348.624 595.883 348.912C597.471 349.035 599.016 348.415 600.604 348.296C604.611 347.994 608.131 350.886 610.352 354.073C613.714 358.929 615.241 364.728 614.68 370.518C614.316 374.153 613.131 377.686 612.876 381.329C611.904 395.191 624.258 407.234 624.497 421.124C624.638 429.295 620.56 436.929 616.585 444.173C623.001 453.418 617.747 465.73 620.302 476.539C622.725 486.793 631.714 494.821 633.954 505.113C634.98 509.825 635.039 515.623 639.407 518.05C641.324 518.939 643.449 519.343 645.577 519.225C658.417 519.37 671.11 516.621 682.619 511.204C688.02 508.655 693.618 504.849 694.561 499.184C695.322 494.616 692.886 489.506 695.365 485.527C698.286 480.837 705.77 481.209 710.068 477.603C717.041 471.754 711.604 460.597 714.429 452.172C716.969 444.599 725.711 440.575 730.044 433.778C731.749 430.855 732.973 427.7 733.673 424.424C735.658 416.594 736.893 408.608 737.365 400.566C737.48 395.68 737.859 390.802 738.499 385.953C743.171 358.344 771.867 339.857 781.183 313.334C782.073 310.801 782.491 307.427 780.122 305.994C778.717 305.356 777.124 305.198 775.61 305.545L755.056 308.01C752.503 308.316 749.796 308.602 747.452 307.593C745.107 306.585 743.427 303.764 744.67 301.621C748.162 295.606 740.98 288.005 737.79 281.841C729.198 265.243 718.966 249.46 707.233 234.705C706.482 233.946 706.011 232.975 705.893 231.938L711.727 232.123C709.757 225.402 706.508 218.047 699.643 215.588C695.774 214.203 691.491 214.682 687.363 214.897C675.542 215.511 662.868 213.813 651.167 212.092Z" fill="url(#paint2_radial_74_691)" fill-opacity="0.3"/>
<path d="M687.19 59.5783C690.293 62.7007 693.77 66.0111 698.259 66.5554C706.189 67.5167 711.89 59.7465 715.52 52.9973C715.654 54.7179 716.492 56.321 717.854 57.4656C719.216 58.6102 720.996 59.2059 722.815 59.1261C724.772 58.8141 726.64 58.122 728.302 57.0933C744.012 48.9575 761.609 44.6468 779.512 44.5485C779.34 43.2633 779.677 41.9634 780.457 40.8994C781.237 39.8355 782.405 39.083 783.736 38.7871C787.376 38.1032 790.655 41.0855 792.411 44.1833C794.166 47.2812 795.261 50.8719 798.051 53.1907C800.841 55.5095 806.242 55.4085 807.344 52.0507C808.402 48.827 804.858 46.0778 801.914 44.1772C798.969 42.2766 795.866 38.7589 797.848 35.9541C812.891 32.7988 828.027 29.6315 843.419 29.0043C846.04 29.0908 848.651 28.6645 851.09 27.7521C853.437 26.6605 855.303 24.1827 854.672 21.7782C851.313 22.5264 847.795 22.3097 844.566 21.1557C841.338 20.0018 838.545 17.9628 836.544 15.2988C857.902 13.6286 880.619 12.205 899.547 21.7284C901.818 26.3491 890.242 30.1934 893.339 34.361C894.327 35.6902 896.306 35.8461 898.022 35.8763C911.175 36.1077 924.404 36.3346 937.409 34.4528C942.162 33.7651 946.962 32.7943 951.733 33.352C959.681 34.2808 966.478 39.3058 974.297 40.9441C977.479 41.611 981.048 41.6336 983.73 39.8796C986.413 38.1256 987.566 34.1317 985.368 31.8515C992.729 25.0144 1004.95 26.7089 1014.66 29.9822C1024.37 33.2555 1033.57 38.5343 1043.85 39.2639C1051.22 39.7871 1058.7 37.9083 1065.98 39.1025C1070.56 39.853 1074.82 41.7825 1079.29 42.9679C1087.75 45.21 1096.7 44.7367 1105.48 44.8446C1127.9 45.1307 1150.07 49.305 1170.89 57.1607C1173.6 57.9966 1176.08 59.3863 1178.16 61.2317C1180.1 63.1981 1181.09 66.2538 1179.79 68.6446L1158.27 65.6649C1160.29 69.4474 1165.54 70.0919 1169.8 71.3968C1174.06 72.7017 1178.48 77.1596 1175.92 80.64C1171.3 79.2473 1167.12 83.6203 1164.79 87.6438C1162.45 91.6674 1159.61 96.486 1154.78 96.7311C1150.44 96.9506 1145.21 93.4556 1142.38 96.5761C1146.28 101.239 1149.62 106.299 1152.34 111.663C1155.13 117.17 1157.12 124.108 1153.35 129.063C1152.75 129.947 1151.85 130.608 1150.8 130.933C1147.72 131.671 1145.72 128.102 1143.52 125.938C1140.73 123.212 1136.53 122.44 1132.76 121.161C1128.99 119.883 1125.02 117.368 1124.72 113.585C1124.54 111.232 1125.85 109.045 1126.82 106.87C1128.44 103.203 1129.15 99.2323 1128.89 95.2641C1128.68 92.0717 1127.74 88.7509 1125.32 86.5204C1122.9 84.2899 1118.72 83.5823 1116.12 85.6252C1114.91 86.5785 1113.94 88.1032 1112.37 88.1602C1109.59 88.261 1107.45 83.6668 1105.21 85.2351C1105.48 86.9061 1105.11 88.6114 1104.18 90.0529C1097.5 95.5552 1087.25 93.2274 1078.64 95.1711C1074.55 96.281 1070.63 97.9026 1066.99 99.9931C1065.63 100.545 1064.47 101.467 1063.66 102.642C1062.58 104.621 1063.77 107.155 1065.66 108.47C1067.67 109.637 1069.93 110.367 1072.27 110.607C1082.76 112.49 1093.41 115.406 1101.69 121.792C1109.98 128.179 1115.41 138.737 1112.79 148.547L1092.1 129.81C1092.88 137.678 1093.33 145.566 1093.43 153.477C1093.57 155.021 1093.34 156.575 1092.78 158.029C1091.3 161.117 1087.3 162.156 1083.8 162.837C1082.83 163.013 1081.9 163.381 1081.09 163.919C1080.27 164.457 1079.59 165.152 1079.08 165.959C1078.57 166.765 1078.25 167.664 1078.13 168.598C1078.01 169.531 1078.11 170.477 1078.4 171.374C1079.65 175.219 1082.75 178.217 1085.59 181.204C1088.43 184.191 1091.23 187.586 1091.6 191.592C1091.98 195.598 1088.79 200.114 1084.55 199.835C1081.34 199.624 1078.96 196.901 1077.59 194.142C1076.22 191.383 1075.41 188.31 1073.35 185.966C1067.13 178.87 1053.14 181.91 1047.56 174.346C1046.14 175.874 1045.16 177.721 1044.7 179.712C1044.24 181.703 1044.33 183.771 1044.96 185.72C1047.55 184.181 1051.1 185.611 1053.05 187.848C1055 190.084 1055.92 192.952 1057.45 195.464C1059.52 198.854 1062.81 201.859 1063.09 205.763C1063.02 207.24 1063.04 208.72 1063.17 210.193C1063.69 212.559 1065.8 214.258 1067.26 216.236C1070.66 220.837 1070.5 227.159 1068.3 232.38C1066.11 237.601 1062.16 241.964 1058.26 246.194C1051.44 253.582 1044.48 260.926 1036.39 267.061C1034.09 268.812 1031.62 270.534 1030.19 272.981C1028.75 275.429 1028.68 278.864 1030.88 280.726C1029.3 280.801 1026.47 281.537 1024.89 281.612C1024.33 275.606 1024.21 269.571 1024.53 263.549C1018.29 260.711 1011.58 268.309 1012.38 274.82C1013.19 281.33 1018.16 286.554 1021.7 292.186C1024.28 296.305 1026.2 301.108 1025.34 305.83C1024.48 310.553 1020.03 314.91 1014.99 314.493C1006.97 313.831 1003.62 302.927 995.685 301.679C994.985 301.524 994.25 301.593 993.596 301.876C992.418 302.489 992.213 303.982 992.147 305.254C991.822 311.498 991.541 317.989 994.113 323.745C997.875 332.166 1007.59 339.238 1005.56 348.176C994.572 343.338 988.862 331.666 986.269 320.454C983.676 309.242 983.244 297.472 978.596 286.873C975.067 291.16 967.649 287.616 964.424 283.119C961.367 278.856 959.485 273.924 956.519 269.603C953.553 265.282 949.009 261.413 943.575 261.176C937.878 260.927 932.937 264.631 928.592 268.132C925.02 271.01 921.351 274.002 919.263 277.981C916.224 283.771 917.019 290.596 916.872 297.062C916.714 304.051 915.151 311.426 910.124 316.542C905.096 321.659 895.818 323.441 890.273 318.83C887.378 316.422 885.976 312.825 884.728 309.373C878.71 292.729 873.698 275.774 869.717 258.59C868.785 262.512 865.15 267.567 861.678 265.257C860.899 264.636 860.268 263.865 859.827 262.996C853.35 252.594 841.357 246.355 829.239 242.614C817.121 238.873 804.371 237.128 792.387 233.017C785.672 230.712 779.258 227.684 773.271 223.993C771.745 226.118 770.854 228.595 770.692 231.16C770.53 233.726 771.104 236.285 772.352 238.567C775.01 243.027 781.026 245.608 786.175 244.049C788.836 243.243 791.083 241.493 793.723 240.628C796.363 239.764 799.907 240.188 801.062 242.599C802.167 244.906 800.496 247.697 801.325 250.106C802.587 253.775 808.427 254.058 810.469 257.397C811.988 259.881 810.738 263.18 808.569 265.184C806.399 267.189 803.505 268.288 800.857 269.684C792.265 274.211 786.154 281.94 778.645 287.954C771.136 293.967 760.542 298.357 751.593 294.5C753.726 284.264 740.859 276.749 738.492 266.56C737.713 263.206 738.117 259.643 737.004 256.375C735.394 251.643 730.964 248.389 727.329 244.803C722.921 240.406 719.486 235.217 717.229 229.543C714.971 223.868 713.936 217.822 714.184 211.761C714.38 207.55 715.197 203.27 714.184 199.166C713.172 195.061 709.586 191.088 705.142 191.274C694.991 191.699 682.205 192.414 676.879 184.215C674.979 181.289 674.152 177.003 676.899 174.761C678.838 173.179 681.699 173.328 684.245 173.566L707.115 175.697C712.464 176.196 718.246 176.608 722.836 173.958C727.425 171.308 729.414 164.274 725.164 161.157C722.059 158.879 716.495 159.002 715.592 155.38C714.841 152.364 718.364 148.942 716.461 146.421C715.096 144.613 712.029 145.115 710.17 146.47C708.311 147.825 706.963 149.806 704.882 150.832C701.233 152.632 696.873 150.919 692.947 149.755C689.021 148.591 683.757 148.492 681.853 151.948C679.723 155.812 683.742 160.876 681.628 164.749C678.834 169.869 669.37 166.954 665.446 171.358C660.942 176.411 668.51 183.947 666.991 190.403C665.052 191.313 662.897 191.73 660.737 191.615C658.577 191.5 656.485 190.856 654.666 189.746C652.876 188.593 651.45 187.002 650.539 185.142C649.628 183.282 649.266 181.223 649.492 179.183C649.868 176.279 651.466 173.315 650.395 170.57C649.53 168.351 647.179 167.03 644.993 165.886L622.769 154.248C620.706 157.876 623.315 162.372 626.577 165.097C629.839 167.821 633.926 169.873 636.069 173.458C637.424 175.942 637.728 178.823 636.918 181.512C636.108 184.201 634.246 186.496 631.711 187.928C631.393 188.136 631.031 188.276 630.651 188.339C630.271 188.402 629.881 188.386 629.508 188.292C629.153 188.095 628.844 187.832 628.598 187.519C628.353 187.206 628.176 186.85 628.079 186.471C624.158 176.962 618.27 167.587 608.858 162.62C599.446 157.652 585.921 158.674 579.749 167.041C578.283 169.029 577.299 171.294 576.022 173.396C569.236 184.56 554.69 189.846 541.1 189.501C539.77 189.57 538.448 189.276 537.29 188.653C535.094 187.215 535.193 184.165 535.529 181.655L536.956 171.006C537.242 168.868 537.657 166.504 539.443 165.169C541.961 163.287 545.593 164.475 548.799 164.431C551.228 164.323 553.564 163.51 555.489 162.103C557.414 160.695 558.836 158.76 559.561 156.56C560.209 154.339 560.205 151.993 559.549 149.774C558.894 147.555 557.612 145.548 555.841 143.968C554.372 142.66 552.399 141.017 553.175 139.254C553.485 138.766 553.904 138.349 554.402 138.031C554.9 137.713 555.466 137.502 556.059 137.414C561.819 135.829 567.904 135.413 573.567 133.543C579.23 131.673 584.723 127.847 586.064 122.308C586.475 120.611 586.662 118.554 588.271 117.713C589.078 117.39 589.945 117.222 590.822 117.219C593.892 116.805 596.688 115.317 598.658 113.048C600.629 110.778 601.631 107.892 601.468 104.957C604.182 103.16 607.985 104.482 610.611 106.394C613.236 108.305 615.554 110.83 618.749 111.654C624.703 113.19 630.457 108.195 636.628 108.171C639.223 108.162 641.909 109.031 644.35 108.197C646.825 107.352 648.303 105.018 650.202 103.293C652.101 101.568 655.434 100.517 657.188 102.374L655.694 91.8913C658.702 92.6114 661.838 92.7133 664.89 92.1903C667.943 91.6673 670.843 90.5314 673.394 88.859L654.092 82.6787C653.419 82.5197 652.799 82.2055 652.287 81.7641C650.883 80.3322 652.277 78.1008 653.418 76.473C656.148 72.579 656.606 66.1646 652.117 64.2259C649.053 62.9026 645.536 64.491 642.595 66.045L628.506 73.4889C628.059 76.0266 631.333 77.4648 633.363 79.1741C634.591 80.2083 635.459 81.5702 635.855 83.0809C636.251 84.5916 636.156 86.1806 635.582 87.639C635.007 89.0974 633.981 90.357 632.637 91.2525C631.294 92.148 629.695 92.6374 628.053 92.6565C628.981 93.7994 629.625 95.1254 629.939 96.5364C630.252 97.9474 630.227 99.4072 629.865 100.808L620.386 101.454C619.322 101.657 618.217 101.452 617.311 100.885C616.298 100.032 616.435 98.5367 616.2 97.2712C615.633 94.2169 612.477 92.0763 609.256 91.5274C606.035 90.9785 602.74 91.6821 599.551 92.3768C598.196 92.8386 596.709 92.806 595.379 92.2855C594.616 91.8159 594.036 91.1225 593.728 90.3114C592.33 87.0986 593.637 83.3222 595.883 80.5747C598.128 77.8272 601.203 75.8186 603.964 73.5313C610.567 68.0413 615.418 60.9111 617.969 52.946C623.188 50.8742 628.59 48.0592 633.808 45.9873C641.853 42.1275 650.875 40.4711 659.859 41.2043L677.531 41.5242C682.763 41.6189 688.136 41.7402 692.974 43.6304C697.812 45.5205 702.063 49.6087 702.397 54.5575C702.498 55.1177 702.447 55.693 702.249 56.2294C702.05 56.7658 701.712 57.2457 701.264 57.624C700.581 57.9773 699.807 58.1426 699.03 58.1012C694.15 58.2637 692.07 59.4158 687.19 59.5783Z" fill="url(#paint3_linear_74_691)" fill-opacity="0.2"/>
<path d="M546.467 112.226C547.177 111.605 547.687 110.815 547.942 109.943C548.198 109.071 548.189 108.151 547.916 107.283C546.19 106.667 544.313 106.509 542.496 106.826C540.678 107.144 538.993 107.925 537.629 109.081C536.553 110.087 535.627 111.221 534.873 112.452C532.488 116.053 530.378 120.353 531.76 124.378C531.873 124.817 532.079 125.231 532.367 125.595C532.655 125.959 533.018 126.267 533.436 126.499C534.055 126.729 534.723 126.826 535.389 126.782C538.017 126.779 540.642 126.63 543.25 126.335C544.851 126.153 546.711 125.735 547.33 124.356C548.144 122.543 546.175 120.492 546.749 118.603C547.127 117.758 547.699 116.999 548.426 116.38C548.787 116.069 549.064 115.683 549.236 115.255C549.407 114.827 549.469 114.368 549.415 113.914C549.184 113.027 547.717 112.524 547.188 113.294" fill="#BDCEFF" fill-opacity="0.2"/>
<path d="M560.114 95.1233C557.829 94.612 555.473 94.4679 553.14 94.6966C552.624 94.6816 552.113 94.7949 551.654 95.0256C551.21 95.345 550.888 95.7997 550.739 96.3178C550.246 97.8589 550.367 99.5243 551.078 100.982C551.789 102.44 553.037 103.584 554.574 104.185C555.412 104.373 556.215 104.687 556.953 105.116C558.925 106.608 557.668 109.656 558.041 112.061C558.46 114.762 561.143 117.029 560.651 119.718C560.264 121.837 557.942 123.514 558.315 125.635C558.707 127.857 561.6 128.524 563.906 128.702C565.242 128.93 566.617 128.777 567.866 128.26C569.118 127.426 570.008 126.17 570.365 124.734C571.309 121.996 571.706 119.106 571.533 116.223C571.523 114.911 571.185 113.622 570.549 112.466C569.854 111.551 569.085 110.692 568.247 109.898C563.829 104.891 568.481 97.4212 560.114 95.1233Z" fill="#BDCEFF" fill-opacity="0.2"/>
<path opacity="0.8" d="M1137.11 473.962C1137.11 473.962 800.664 291.796 655.821 326.312C655.821 326.312 348.856 357.472 313.28 426.024C313.28 426.024 215.701 138.393 180.126 128.805" stroke="#6B6B6B" stroke-opacity="0.4" stroke-width="2" stroke-miterlimit="10"/>
<path opacity="0.8" d="M313.28 426.011C369.693 284.074 877.914 126.792 877.914 126.792C805.747 144.055 655.821 326.271 655.821 326.271C655.821 326.271 338.691 108.571 180.126 128.711C180.126 128.711 878.423 150.289 1137.11 473.962" stroke="#6B6B6B" stroke-opacity="0.4" stroke-width="2" stroke-miterlimit="10"/>
<path d="M180.629 141.887C188.688 141.887 195.22 135.805 195.22 128.302C195.22 120.799 188.688 114.717 180.629 114.717C172.571 114.717 166.038 120.799 166.038 128.302C166.038 135.805 172.571 141.887 180.629 141.887Z" fill="#214ECC" fill-opacity="0.2"/>
<path d="M312.956 441.761C320.737 441.761 327.044 435.003 327.044 426.667C327.044 418.33 320.737 411.572 312.956 411.572C305.176 411.572 298.868 418.33 298.868 426.667C298.868 435.003 305.176 441.761 312.956 441.761Z" fill="#214ECC" fill-opacity="0.2"/>
<path d="M877.484 140.881C885.821 140.881 892.579 134.573 892.579 126.792C892.579 119.012 885.821 112.704 877.484 112.704C869.148 112.704 862.39 119.012 862.39 126.792C862.39 134.573 869.148 140.881 877.484 140.881Z" fill="#214ECC" fill-opacity="0.2"/>
<path d="M1136.1 488.05C1143.88 488.05 1150.19 481.968 1150.19 474.465C1150.19 466.963 1143.88 460.881 1136.1 460.881C1128.32 460.881 1122.01 466.963 1122.01 474.465C1122.01 481.968 1128.32 488.05 1136.1 488.05Z" fill="#214ECC" fill-opacity="0.2"/>
<path d="M656.101 340.126C664.437 340.126 671.195 334.044 671.195 326.541C671.195 319.038 664.437 312.956 656.101 312.956C647.764 312.956 641.007 319.038 641.007 326.541C641.007 334.044 647.764 340.126 656.101 340.126Z" fill="#214ECC" fill-opacity="0.2"/>
</g>
<defs>
<linearGradient id="paint0_linear_74_691" x1="205.786" y1="29.1824" x2="205.786" y2="615.849" gradientUnits="userSpaceOnUse">
<stop stop-color="#E6FCFF"/>
<stop offset="0.435671" stop-color="#091C3D"/>
</linearGradient>
<radialGradient id="paint1_radial_74_691" cx="0" cy="0" r="1" gradientUnits="userSpaceOnUse" gradientTransform="translate(1115.98 474.465) rotate(90) scale(65.912 89.5598)">
<stop stop-color="#0E2259"/>
<stop offset="1" stop-color="#DFE7FF"/>
</radialGradient>
<radialGradient id="paint2_radial_74_691" cx="0" cy="0" r="1" gradientUnits="userSpaceOnUse" gradientTransform="translate(640 353.208) rotate(90) scale(166.038 141.887)">
<stop stop-color="#0E2259"/>
<stop offset="1" stop-color="#DFE7FF"/>
</radialGradient>
<linearGradient id="paint3_linear_74_691" x1="857.862" y1="14.0881" x2="857.862" y2="348.176" gradientUnits="userSpaceOnUse">
<stop stop-color="#B0F7FF" stop-opacity="0.5"/>
<stop offset="1" stop-color="#005059" stop-opacity="0.5"/>
</linearGradient>
</defs>
</svg>
